PathFileType	4	(X/Y/Z)	./motion_analysis/DM_ngait_tm_med1_new.trc
DataRate	CameraRate	NumFrames	NumMarkers	Units	OrigDataRate	OrigDataStartFrame	OrigNumFrames
120	120	5	68	mm	120	0	2061
Frame#	Time	Sternum			Neck			R_Shoulder			L_Shoulder			Xiphoid			Thoracic			R_Asis			L_Asis			R_Psis			L_Psis			Lumbar			R_Elbow			R_ElbowMedial			R_ShoulderAnterior			R_ShoulderPosterior			R_Wrist			R_Radius			R_Ulna			L_Elbow			L_ElbowMedial			L_ShoulderAnterior			L_ShoulderPosterior			L_Wrist			L_Ulna			L_Radius			L_Thigh_Superior			L_Thigh_Inferior			L_Thigh_Lateral			L_Knee_Lateral			L_Knee_Medial			L_Patella			L_Shank_Superior			L_Shank_Inferior			L_Shank_Lateral			L_Ankle_Lateral			L_Ankle_Medial			R_Thigh_Superior			R_Thigh_Inferior			R_Thigh_Lateral			R_Knee_Lateral			R_Knee_Medial			R_Patella			R_Shank_Superior			R_Shank_Inferior			R_Shank_Lateral			R_Ankle_Lateral			RankleMedial			R_Heel			R_Toe			R_Midfoot_Medial			R_Midfoot_Lateral			R_Hindfoot			R_Midfoot_Superior			R_ToeMedial			R_ToeLateral			L_Heel			L_Toe			L_Midfoot_Medial			L_Midfoot_Lateral			L_Hindfoot			L_Midfoot_Superior			L_ToeMedial			L_ToeLateral			Oglobal			Sacral			Xglobal			Yglobal			Zglobal			
		X1	Y1	Z1	X2	Y2	Z2	X3	Y3	Z3	X4	Y4	Z4	X5	Y5	Z5	X6	Y6	Z6	X7	Y7	Z7	X8	Y8	Z8	X9	Y9	Z9	X10	Y10	Z10	X11	Y11	Z11	X12	Y12	Z12	X13	Y13	Z13	X14	Y14	Z14	X15	Y15	Z15	X16	Y16	Z16	X17	Y17	Z17	X18	Y18	Z18	X19	Y19	Z19	X20	Y20	Z20	X21	Y21	Z21	X22	Y22	Z22	X23	Y23	Z23	X24	Y24	Z24	X25	Y25	Z25	X26	Y26	Z26	X27	Y27	Z27	X28	Y28	Z28	X29	Y29	Z29	X30	Y30	Z30	X31	Y31	Z31	X32	Y32	Z32	X33	Y33	Z33	X34	Y34	Z34	X35	Y35	Z35	X36	Y36	Z36	X37	Y37	Z37	X38	Y38	Z38	X39	Y39	Z39	X40	Y40	Z40	X41	Y41	Z41	X42	Y42	Z42	X43	Y43	Z43	X44	Y44	Z44	X45	Y45	Z45	X46	Y46	Z46	X47	Y47	Z47	X48	Y48	Z48	X49	Y49	Z49	X50	Y50	Z50	X51	Y51	Z51	X52	Y52	Z52	X53	Y53	Z53	X54	Y54	Z54	X55	Y55	Z55	X56	Y56	Z56	X57	Y57	Z57	X58	Y58	Z58	X59	Y59	Z59	X60	Y60	Z60	X61	Y61	Z61	X62	Y62	Z62	X63	Y63	Z63	X64	Y64	Z64	X65	Y65	Z65	X66	Y66	Z66	X67	Y67	Z67	X68	Y68	Z68	

1	0.008333	-932.295	1388.8	438.654	-784.138	1479.71	408.933	-894.889	1411.77	261.46	-823.349	1442.49	598.266	-945.451	1223.49	449.604	-686.72	1290.48	421.434	-884.075	999.236	318.52	-863.7430000000001	1000.55	595.374	-673.138	1041.24	411.139	-668.626	1039.23	489.095	-673.237	1089.84	447.659	-1000.13	1109.65	196.586	-0	0	0	-0	0	0	-0	0	0	-1210.33	969.125	307.721	-1181.9	969.014	345.551	-1186.27	941.189	276.231	-746.133	1109.38	694.035	-0	0	0	-0	0	0	-0	0	0	-809.533	848.1849999999999	697.723	-762.408	856.16	704.064	-816.102	863.857	653.2140000000001	-841.953	837.079	634.192	-954.4450000000001	640.8049999999999	603.818	-963.956	738.455	569.556	-0	0	0	-0	0	0	-1019.57	555.014	561.479	-939.968	487.025	616.361	-896.502	218.21	613.409	-959.792	341.398	549.525	-0	0	0	-0	0	0	-786.5839999999999	818.457	288.409	-783.433	602.2380000000001	332.561	-868.155	660.221	383.096	-0	0	0	-0	0	0	-846.141	509.116	410.411	-0	0	0	-684.838	204.79	338.463	-763.425	319.698	410.037	-0	0	0	-0	0	0	-579.159	77.0283	387.853	-879.023	67.5159	386.733	-800.751	42.6424	438.162	-790.08	45.3444	321.409	-679.572	44.0334	333.569	-741.216	132.473	387.193	-844.795	55.4108	430.964	-838.914	55.7507	337.529	-823.069	102.956	555.165	-1117.61	77.1315	586.982	-1044.01	61.6019	529.7910000000001	-1020.06	61.2252	641.74	-913.165	62.2115	621.602	-988.7140000000001	150.028	578.465	-1083.31	60.7649	539.725	-1074.74	59.8479	635.841	-0	0	0	-670.8819999999999	1040.23	450.117	-200	0	0	-0	0	200	-0	200	0	
2	0.016667	-932.056	1387.82	439.254	-784.049	1479.12	409.844	-894.354	1411.22	262.202	-823.538	1441.6	599.217	-944.782	1222.5	449.952	-686.194	1290.15	422.322	-883.319	1001.57	318.883	-862.994	999.4589999999999	595.663	-671.7089999999999	1039.51	411.767	-668.127	1040.1	490.022	-671.9880000000001	1089.45	449.054	-999.1130000000001	1108.92	197.006	-0	0	0	-0	0	0	-0	0	0	-1210.09	968.913	307.531	-1181.84	968.909	345.515	-1185.97	940.835	276.259	-745.796	1108.48	694.55	-0	0	0	-0	0	0	-0	0	0	-807.879	846.982	697.542	-760.829	855.201	704.183	-814.389	862.734	653.0890000000001	-840.604	836.388	635.455	-951.926	639.492	602.8390000000001	-961.687	737.006	569.11	-0	0	0	-0	0	0	-1017.07	554.5650000000001	560.175	-939.6559999999999	485.691	616.136	-908.443	214.944	614.614	-966.2140000000001	340.57	550.045	-0	0	0	-0	0	0	-784.086	818.1	288.591	-779.577	601.875	332.608	-864.857	659.2569999999999	382.972	-0	0	0	-0	0	0	-841.818	508.22	410.033	-0	0	0	-678.6950000000001	204.903	338.488	-757.36	319.761	412.249	-0	0	0	-0	0	0	-572.497	77.1144	387.836	-872.3680000000001	67.4007	386.545	-794.066	42.5168	438.099	-783.357	45.1174	321.347	-672.873	44.004	333.587	-734.734	132.406	387.063	-838.169	55.349	430.962	-832.297	55.6064	337.607	-839.8099999999999	97.13979999999999	557.415	-1135.07	81.3413	588.3680000000001	-1061.97	63.289	531.616	-1038.32	62.4604	643.625	-931.404	59.755	623.726	-1003.82	149.937	580.149	-1101.29	63.7014	541.294	-1093.06	62.8091	637.452	-0	0	0	-669.918	1039.8	450.894	-200	0	0	-0	0	200	-0	200	0	
3	0.025	-931.84	1386.85	439.949	-783.977	1478.51	410.948	-893.8579999999999	1410.67	262.98	-823.804	1440.63	600.184	-944.323	1221.46	450.457	-685.797	1289.76	423.331	-881.976	1000.82	319.019	-862.398	998.449	595.909	-670.731	1039.17	412.562	-667.375	1039.68	490.784	-671.215	1089.07	449.894	-998.1	1108.2	197.43	-0	0	0	-0	0	0	-0	0	0	-1209.79	968.679	307.38	-1181.65	968.737	345.48	-1185.54	940.519	276.182	-745.487	1107.54	695.122	-0	0	0	-0	0	0	-0	0	0	-806.3390000000001	845.712	697.429	-759.405	854.204	704.409	-812.742	861.591	652.95	-838.918	835.425	636.0069999999999	-949.15	638.002	602.079	-959.236	735.35	568.798	-0	0	0	-0	0	0	-1014.34	553.8579999999999	558.835	-939.134	484.285	616.059	-920.268	212.245	615.828	-972.511	339.991	550.587	-0	0	0	-0	0	0	-781.657	817.729	288.856	-775.7619999999999	601.482	332.774	-861.568	658.319	382.785	-0	0	0	-0	0	0	-837.515	507.193	409.899	-0	0	0	-672.518	204.969	338.528	-752.451	319.218	410.788	-0	0	0	-0	0	0	-565.852	77.2769	387.873	-865.698	67.3022	386.571	-787.41	42.3666	437.967	-776.6319999999999	45.0875	321.224	-666.173	44.0601	333.498	-728.184	132.384	387.05	-831.499	55.2494	430.839	-825.575	55.6108	337.443	-856.527	92.14060000000001	559.454	-1152.23	86.19750000000001	589.824	-1079.65	65.68389999999999	533.2619999999999	-1056.26	64.279	645.321	-949.479	57.9808	625.645	-1018.71	150.427	581.753	-1118.94	67.31019999999999	542.871	-1111.02	66.55329999999999	639.17	-0	0	0	-669.053	1039.42	451.673	-200	0	0	-0	0	200	-0	200	0	
4	0.033333	-931.775	1385.84	440.66	-783.936	1477.83	412.109	-893.3869999999999	1410.01	263.842	-824.228	1439.63	601.272	-943.773	1220.4	450.895	-685.418	1289.3	424.44	-880.747	1000.12	319.15	-861.9829999999999	997.4349999999999	596.1950000000001	-669.859	1038.73	413.388	-666.749	1039.15	491.656	-670.5359999999999	1088.59	450.814	-997.127	1107.49	198.024	-0	0	0	-0	0	0	-0	0	0	-1209.41	968.495	307.26	-1181.37	968.527	345.423	-1185.1	940.265	276.222	-745.331	1106.58	695.749	-0	0	0	-0	0	0	-0	0	0	-804.991	844.397	697.45	-758.0940000000001	853.182	704.653	-811.304	860.3680000000001	653.08	-837.39	834.431	636.683	-946.12	636.359	601.5940000000001	-956.6900000000001	733.455	568.658	-0	0	0	-0	0	0	-1011.43	553.046	557.595	-938.455	482.758	615.9400000000001	-932.025	210.39	617.5359999999999	-978.688	339.658	551.301	-0	0	0	-0	0	0	-779.289	817.345	289.169	-771.962	601.127	332.894	-858.369	657.355	382.69	-0	0	0	-0	0	0	-833.332	506.241	409.814	-0	0	0	-666.4109999999999	205.081	338.599	-746.9400000000001	318.604	410.142	-0	0	0	-0	0	0	-559.27	77.3797	387.898	-859.088	67.36369999999999	386.408	-780.806	42.2891	437.963	-770.009	44.9797	321.221	-659.4589999999999	44.0784	333.559	-721.6	132.325	387.026	-824.831	55.161	430.824	-818.91	55.5031	337.373	-873.129	87.8051	561.317	-1168.98	91.733	591.324	-1096.96	68.72150000000001	534.808	-1073.81	66.791	646.909	-967.282	56.8856	627.444	-1033.3	151.492	583.213	-1136.23	71.727	544.395	-1128.47	70.94750000000001	640.833	-0	0	0	-668.304	1038.94	452.522	-200	0	0	-0	0	200	-0	200	0	
5	0.041667	-931.726	1384.76	441.37	-784.027	1477.1	413.38	-892.879	1409.34	264.682	-824.688	1438.48	602.328	-943.485	1219.29	451.455	-685.0069999999999	1288.87	425.685	-879.52	999.35	319.366	-861.615	996.326	596.467	-669.009	1038.26	414.322	-666.164	1038.6	492.558	-669.903	1088.08	451.808	-996.069	1106.78	198.487	-0	0	0	-0	0	0	-0	0	0	-1208.99	968.34	307.216	-1181.02	968.293	345.397	-1184.7	940.0119999999999	276.272	-745.336	1105.55	696.542	-0	0	0	-0	0	0	-0	0	0	-803.799	843.0839999999999	697.532	-757.015	852.092	705.059	-810.01	859.104	653.191	-835.932	833.208	637.505	-942.7859999999999	634.2430000000001	601.227	-953.996	731.313	568.636	-0	0	0	-0	0	0	-1008.39	552.062	556.153	-937.895	481.142	615.869	-943.348	208.76	618.592	-984.96	339.668	552.063	-0	0	0	-0	0	0	-776.996	817.033	289.447	-768.208	600.776	332.992	-855.255	656.397	382.439	-0	0	0	-0	0	0	-829.047	505.36	409.628	-0	0	0	-660.303	205.252	338.615	-741.564	318.289	409.886	-0	0	0	-0	0	0	-552.715	77.4962	387.966	-852.543	67.22629999999999	386.439	-774.253	42.1839	437.865	-763.384	44.9657	321.132	-652.771	44.0751	333.501	-715.029	132.285	387.03	-818.019	54.9873	431.047	-812.197	55.4737	337.339	-889.491	84.14100000000001	562.9400000000001	-1185.02	98.1694	592.774	-1113.86	72.8351	536.477	-1090.77	70.2403	648.578	-984.638	56.6243	629.091	-1047.46	153.448	584.787	-1153.01	77.0044	545.931	-1145.33	76.1938	642.5309999999999	-0	0	0	-667.586	1038.43	453.44	-200	0	0	-0	0	200	-0	200	0	
